# xmcd CD database file
#
# Track frame offsets:
#	150
#	18733
#	41793
#	61225
#	78738
#	98887
#	114465
#	133606
#	154728
#	169043
#	187702
#	203337
#	217057
#
# Disc length: 3328 seconds
#
# Revision: 0
# Processed by: cddbd v1.5.2PL0 Copyright (c) Steve Scherf et al.
# Submitted via: CDex 1.70beta2
#
DISCID=ad0cfe0d
DTITLE=Smiling Jack Smith - This Blue Before
DYEAR=2006
DGENRE=Blues
TTITLE0=Deja blues
TTITLE1=Don't you break my heart again
TTITLE2=Zombie love
TTITLE3=The blues come back again
TTITLE4=Follow the money
TTITLE5=I found the blues again
TTITLE6=El pesado
TTITLE7=Save my life
TTITLE8=I could live with blues
TTITLE9=What goes around comes around
TTITLE10=Mea culpa
TTITLE11=I love to be in love
TTITLE12=This blues before
EXTD=YEAR: 2006
EXTT0=
EXTT1=
EXTT2=
EXTT3=
EXTT4=
EXTT5=
EXTT6=
EXTT7=
EXTT8=
EXTT9=
EXTT10=
EXTT11=
EXTT12=
PLAYORDER=
